<svg version="1.1" id="Capa_1" xmlns="http://www.w3.org/2000/svg" xmlns:xlink="http://www.w3.org/1999/xlink" x="0px" y="0px" width="28px" height="37px" viewBox="-5 -4 64 64" style="enable-background:new 0 0 122.883 122.883;" xml:space="preserve"><g><g><path cx="20.971" cy="8.957" r="8.957" d="M13.152 3.936a3.936 3.936 0 0 1 -3.936 3.936 3.936 3.936 0 0 1 -3.936 -3.936 3.936 3.936 0 0 1 7.872 0"/><path d="M4.712 16.993c0.16 -0.666 0.328 -1.252 0.509 -1.76v1.76h8.2v-1.76q0.269 0.762 0.509 1.76h3.14c-0.928 -4.307 -3.358 -7.815 -6.841 -8.962l-0.98 0.986 -0.951 -0.997q-0.005 0.002 -0.009 0.003c-0.486 0.115 -5.604 2.383 -6.718 8.97h2.131zm4.34 -6.571 0.071 -0.472 0.118 -0.785h0.017l0.951 6.345 -0.951 1.299h-0.017l-0.95 -1.299z"/><path d="M14.981 10.673c2.17 2.172 3.033 6.32 3.033 6.32h34.415V10.673zm36.113 4.984H31.841v-3.649h19.253z"/><path cx="20.971" cy="50.869" r="8.956" d="M13.151 22.354a3.936 3.936 0 0 1 -3.936 3.936 3.936 3.936 0 0 1 -3.936 -3.936 3.936 3.936 0 0 1 7.871 0"/><path d="m10.229 26.449 -0.98 0.986 -0.951 -0.997q-0.005 0.002 -0.009 0.003c-0.486 0.115 -5.604 2.383 -6.718 8.97h3.14c0.16 -0.666 0.328 -1.252 0.509 -1.76v1.76h8.2v-1.76q0.269 0.762 0.509 1.76h3.14c-0.928 -4.307 -3.357 -7.815 -6.841 -8.962m-0.971 8.778h-0.017l-0.95 -1.299 0.95 -6.345h0.017l0.951 6.345z"/><path d="M18.013 35.411h34.415v-6.32H14.981c2.17 2.173 3.033 6.321 3.033 6.321m20.449 -4.985H51.093v3.65H38.462z"/><path cx="20.971" cy="93.171" r="8.956" d="M13.151 40.943a3.936 3.936 0 0 1 -3.936 3.936 3.936 3.936 0 0 1 -3.936 -3.936 3.936 3.936 0 0 1 7.871 0"/><path d="m10.229 45.038 -0.98 0.985 -0.951 -0.997q-0.005 0.002 -0.009 0.003c-0.486 0.115 -5.604 2.384 -6.718 8.97h3.14c0.16 -0.666 0.328 -1.252 0.509 -1.76v1.76h8.2v-1.76q0.269 0.762 0.509 1.76h3.14c-0.928 -4.306 -3.357 -7.814 -6.841 -8.961m-0.971 8.777h-0.017l-0.95 -1.299 0.95 -6.345h0.017l0.951 6.345z"/><path d="M18.013 54h34.415v-6.32H14.981c2.17 2.171 3.033 6.32 3.033 6.32m5.63 -4.984H51.093v3.649H23.643z"/></g></g></svg>