<svg version="1.1" id="Layer_1" xmlns="http://www.w3.org/2000/svg" xmlns:xlink="http://www.w3.org/1999/xlink" x="0" y="0" viewBox="-5 -4 64 64" style="enable-background:new 0 0 392.533 392.533;" xml:space="preserve" width="27.52" height="37.15"><g><g><path d="M40.224 44.689H13.74c-0.827 0 -1.503 0.667 -1.503 1.503 0 0.827 0.667 1.503 1.503 1.503h26.493c0.827 0 1.503 -0.667 1.503 -1.503 -0.009 -0.836 -0.676 -1.503 -1.512 -1.503"/></g></g><g><g><path d="M40.224 38.108H13.74c-0.827 0 -1.503 0.667 -1.503 1.503 0 0.827 0.667 1.503 1.503 1.503h26.493c0.827 0 1.503 -0.667 1.503 -1.503 -0.009 -0.836 -0.676 -1.503 -1.512 -1.503"/></g></g><g><g><path d="M26.982 6.305c-3.557 0 -6.465 2.899 -6.465 6.465 0 3.557 2.908 6.456 6.465 6.456s6.465 -2.899 6.465 -6.465 -2.908 -6.456 -6.465 -6.456m0 9.907c-1.894 0 -3.451 -1.556 -3.451 -3.451s1.547 -3.451 3.451 -3.451 3.451 1.556 3.451 3.451 -1.556 3.451 -3.451 3.451"/></g></g><g><g><path d="M35.564 22.473c-5.487 -2.134 -11.659 -2.134 -17.146 0 -1.797 0.703 -2.997 2.49 -2.997 4.456v6.101c-0.009 0.827 0.667 1.503 1.494 1.503h20.143c0.827 0 1.503 -0.667 1.503 -1.503V26.929c0 -1.965 -1.201 -3.753 -2.997 -4.456m0 9.062H18.418v-4.598c0 -0.729 0.436 -1.405 1.085 -1.654 4.793 -1.859 10.183 -1.859 14.976 0 0.649 0.258 1.085 0.916 1.085 1.654z"/></g></g><g><g><path d="M43.07 0H18.089c-1.156 0 -2.241 0.445 -3.059 1.263L7.844 8.449c-0.818 0.818 -1.263 1.903 -1.263 3.059v38.152c0 2.392 1.948 4.34 4.34 4.34h32.158c2.392 0 4.34 -1.948 4.34 -4.34V4.34C47.392 1.948 45.445 0 43.07 0M15.412 5.122v3.717H11.695zm28.983 10.948h-5.585c-0.827 0 -1.503 0.667 -1.503 1.503 0 0.827 0.667 1.503 1.503 1.503h5.585v2.668h-2.045c-0.827 0 -1.503 0.667 -1.503 1.503 0 0.827 0.667 1.503 1.503 1.503h2.045v24.919c0 0.738 -0.596 1.334 -1.325 1.334H10.894c-0.729 0 -1.325 -0.596 -1.325 -1.325V11.837h7.346c0.827 0 1.503 -0.667 1.503 -1.503V2.988h24.652c0.729 0 1.325 0.596 1.325 1.325z"/></g></g></svg>