<svg version="1.1" id="Capa_1" xmlns="http://www.w3.org/2000/svg" xmlns:xlink="http://www.w3.org/1999/xlink" x="0" y="0" viewBox="-5 -4 64 64" style="enable-background:new 0 0 463 463;" xml:space="preserve" width="27.52" height="37.15"><g><path d="M42.862 3.732h-6.734c-0.366 -1.083 -1.391 -1.866 -2.597 -1.866h-2.848c-0.864 -1.162 -2.233 -1.866 -3.684 -1.866s-2.819 0.704 -3.684 1.866H20.469c-1.205 0 -2.231 0.783 -2.597 1.866H11.138C9.112 3.732 7.464 5.38 7.464 7.406v42.92c0 2.026 1.648 3.674 3.674 3.674h31.724c2.026 0 3.674 -1.648 3.674 -3.674v-42.92c0 -2.026 -1.648 -3.674 -3.674 -3.674m-22.393 6.415h13.063c0.819 0 1.555 -0.362 2.057 -0.933H41.054v39.305H12.946V9.214h5.465c0.503 0.571 1.238 0.933 2.057 0.933m0 -6.531h3.317a0.875 0.875 0 0 0 0.756 -0.435C25.063 2.285 25.982 1.749 27 1.749c1.018 0 1.937 0.535 2.458 1.431A0.875 0.875 0 0 0 30.214 3.616H33.531c0.547 0 0.991 0.445 0.991 0.991v2.799c0 0.547 -0.445 0.991 -0.991 0.991h-13.063c-0.547 0 -0.991 -0.445 -0.991 -0.991v-2.799c0 -0.547 0.445 -0.991 0.991 -0.991M44.786 50.326c0 1.061 -0.863 1.924 -1.924 1.924h-31.724c-1.061 0 -1.924 -0.863 -1.924 -1.924v-42.92C9.214 6.345 10.077 5.482 11.138 5.482H17.728v1.924c0 0.02 0.001 0.039 0.002 0.058H12.071a0.875 0.875 0 0 0 -0.875 0.875v41.054a0.875 0.875 0 0 0 0.875 0.875h29.857a0.875 0.875 0 0 0 0.875 -0.875v-41.054a0.875 0.875 0 0 0 -0.875 -0.875h-5.658c0 -0.019 0.002 -0.039 0.002 -0.058V5.482h6.59c1.061 0 1.924 0.863 1.924 1.924z"/><path d="M27 5.482a0.876 0.876 0 0 0 0.875 -0.875 0.876 0.876 0 0 0 -0.875 -0.875 0.876 0.876 0 0 0 -0.875 0.875 0.876 0.876 0 0 0 0.875 0.875"/><path d="M21.402 18.544h15.862c0.483 0 0.875 -0.392 0.875 -0.875s-0.392 -0.875 -0.875 -0.875h-15.862c-0.483 0 -0.875 0.392 -0.875 0.875s0.392 0.875 0.875 0.875"/><path d="M21.402 27.875h15.862c0.483 0 0.875 -0.392 0.875 -0.875s-0.392 -0.875 -0.875 -0.875h-15.862c-0.483 0 -0.875 0.392 -0.875 0.875s0.392 0.875 0.875 0.875"/><path d="M21.402 37.205h2.799c0.483 0 0.875 -0.392 0.875 -0.875s-0.392 -0.875 -0.875 -0.875h-2.799c-0.483 0 -0.875 0.392 -0.875 0.875s0.392 0.875 0.875 0.875"/><path d="M21.402 23.21h15.862c0.483 0 0.875 -0.392 0.875 -0.875s-0.392 -0.875 -0.875 -0.875h-15.862c-0.483 0 -0.875 0.392 -0.875 0.875s0.392 0.875 0.875 0.875"/><path d="M21.402 32.54h3.732c0.483 0 0.875 -0.392 0.875 -0.875s-0.392 -0.875 -0.875 -0.875h-3.732c-0.483 0 -0.875 0.392 -0.875 0.875s0.392 0.875 0.875 0.875"/><path d="M21.402 41.87h3.732c0.483 0 0.875 -0.392 0.875 -0.875s-0.392 -0.875 -0.875 -0.875h-3.732c-0.483 0 -0.875 0.392 -0.875 0.875s0.392 0.875 0.875 0.875"/><path d="M16.737 18.544h0.933c0.483 0 0.875 -0.392 0.875 -0.875s-0.392 -0.875 -0.875 -0.875h-0.933c-0.483 0 -0.875 0.392 -0.875 0.875s0.392 0.875 0.875 0.875"/><path d="M16.737 27.875h0.933c0.483 0 0.875 -0.392 0.875 -0.875s-0.392 -0.875 -0.875 -0.875h-0.933c-0.483 0 -0.875 0.392 -0.875 0.875s0.392 0.875 0.875 0.875"/><path d="M16.737 37.205h0.933c0.483 0 0.875 -0.392 0.875 -0.875s-0.392 -0.875 -0.875 -0.875h-0.933c-0.483 0 -0.875 0.392 -0.875 0.875s0.392 0.875 0.875 0.875"/><path d="M16.737 23.21h0.933c0.483 0 0.875 -0.392 0.875 -0.875s-0.392 -0.875 -0.875 -0.875h-0.933c-0.483 0 -0.875 0.392 -0.875 0.875s0.392 0.875 0.875 0.875"/><path d="M16.737 32.54h0.933c0.483 0 0.875 -0.392 0.875 -0.875s-0.392 -0.875 -0.875 -0.875h-0.933c-0.483 0 -0.875 0.392 -0.875 0.875s0.392 0.875 0.875 0.875"/><path d="M16.737 41.87h0.933c0.483 0 0.875 -0.392 0.875 -0.875s-0.392 -0.875 -0.875 -0.875h-0.933c-0.483 0 -0.875 0.392 -0.875 0.875s0.392 0.875 0.875 0.875"/><path d="M32.598 30.79c-3.055 0 -5.54 2.485 -5.54 5.54s2.485 5.54 5.54 5.54a5.511 5.511 0 0 0 3.297 -1.091c0.009 -0.006 0.018 -0.01 0.027 -0.017q0.035 -0.026 0.066 -0.055C37.295 39.693 38.138 38.109 38.138 36.33c0 -3.055 -2.485 -5.54 -5.54 -5.54m-0.875 1.852V35.456h-2.813c0.329 -1.389 1.424 -2.483 2.813 -2.813M28.911 37.205h3.25l1.95 2.6A3.767 3.767 0 0 1 32.598 40.121c-1.789 0 -3.291 -1.246 -3.688 -2.916m6.599 1.549L33.473 36.039v-3.396c1.67 0.396 2.916 1.899 2.916 3.688 0 0.921 -0.331 1.766 -0.879 2.424"/></g></svg>